P2
128 96
255
77 78 79 79 79 80 80 81 82 82 83 83 84 84 84 85 
86 86 86 86 86 86 86 86 86 86 86 87 86 87 88 87 
87 86 87 87 87 87 86 86 85 85 85 84 83 83 83 82 
82 82 82 81 81 81 80 80 79 79 78 76 71 90 252 253 
253 250 252 240 85 75 76 76 77 77 76 76 76 75 75 76 
74 74 73 73 73 73 73 73 72 72 72 72 72 72 71 71 
71 71 70 70 70 69 70 71 70 69 69 68 68 67 67 66 
66 65 65 64 64 63 62 62 62 61 61 59 60 59 57 56 

78 79 81 82 81 82 82 83 84 84 85 85 86 87 87 87 
88 88 88 89 89 89 88 88 88 88 89 89 89 89 90 90 
89 89 89 89 88 89 88 88 87 87 86 86 86 85 84 84 
83 83 84 83 83 82 82 82 82 82 81 78 73 128 251 253 
253 250 252 186 75 74 77 78 78 78 78 77 77 77 77 78 
77 77 76 75 75 75 74 74 74 74 73 73 73 73 73 73 
72 72 72 71 71 71 71 71 70 70 70 70 69 69 68 67 
67 67 66 65 65 64 64 63 63 62 62 60 59 59 58 61 

79 79 81 82 83 84 84 85 86 86 86 88 88 89 90 90 
90 90 90 91 91 91 91 90 90 91 91 91 90 90 92 92 
91 90 91 91 91 89 89 89 89 89 88 88 88 88 87 86 
85 85 85 84 84 83 84 83 84 83 82 78 73 163 252 253 
252 251 252 122 74 77 78 79 78 79 78 78 78 77 77 77 
78 77 76 76 76 76 76 76 75 74 74 74 74 74 73 74 
73 73 73 73 73 73 73 72 72 72 71 69 69 68 69 68 
68 67 67 66 66 65 65 64 63 61 61 60 59 61 85 166 

107 78 78 81 83 85 86 87 87 89 89 89 90 91 91 92 
93 93 91 91 93 93 92 92 91 91 92 93 92 92 92 93 
94 93 92 91 91 90 90 90 90 90 90 89 89 89 89 88 
87 87 86 86 86 86 85 84 84 84 82 79 73 198 252 253 
250 252 229 80 76 79 80 80 79 79 79 79 79 79 78 78 
78 78 77 77 76 76 75 75 75 75 75 75 75 75 74 74 
74 74 74 73 73 73 72 73 73 73 72 72 70 70 69 69 
69 68 68 67 67 66 65 64 62 61 60 62 93 178 245 246 

247 166 83 79 82 85 87 88 90 90 91 91 92 92 93 93 
94 93 94 95 94 94 94 94 95 94 94 94 94 94 94 94 
94 94 93 93 93 92 92 92 92 91 91 90 90 90 89 89 
88 88 87 87 87 85 85 85 85 84 82 78 73 233 252 252 
248 252 172 76 77 79 80 81 81 80 80 80 79 79 78 78 
79 78 78 78 77 76 76 76 75 76 75 75 75 74 74 75 
74 74 74 73 74 74 74 73 73 74 72 71 72 71 70 69 
69 68 68 67 67 66 64 62 62 63 99 187 248 246 237 227 

252 253 225 124 80 82 86 88 90 91 92 93 93 94 95 95 
96 96 96 97 96 96 97 97 96 96 96 95 95 96 95 96 
96 95 95 94 94 94 94 94 93 92 92 92 92 91 90 90 
90 89 89 89 89 87 87 87 86 85 84 80 90 251 253 245 
244 252 112 76 79 81 82 82 82 81 81 80 80 79 79 79 
79 79 79 78 78 77 77 78 77 77 76 77 77 76 75 76 
75 74 74 74 74 75 74 74 74 74 73 73 73 72 72 70 
70 68 68 66 65 64 63 65 109 196 250 247 239 230 198 123 

248 253 253 252 187 94 83 87 90 92 94 94 95 96 97 97 
97 98 98 98 98 99 98 98 98 98 98 98 97 97 97 97 
97 97 97 96 96 96 95 95 95 94 94 93 93 93 92 91 
90 90 89 90 90 88 88 88 88 87 85 80 112 218 211 198 
249 220 81 78 81 83 81 82 82 81 81 81 80 81 80 80 
79 79 79 78 78 78 78 77 77 77 76 76 77 77 77 77 
76 76 75 74 74 75 75 75 75 75 75 74 74 74 72 71 
70 68 67 65 64 66 116 205 251 249 241 232 185 109 60 56 

100 197 252 253 253 237 139 85 88 91 94 95 96 97 97 98 
99 99 99 100 100 100 100 101 100 99 99 98 99 99 98 98 
97 98 97 97 97 97 96 96 95 94 95 94 94 93 92 92 
91 91 91 90 90 89 88 89 89 88 85 81 123 175 166 174 
252 163 78 80 83 83 83 83 82 82 82 81 81 81 81 80 
80 79 80 79 79 79 78 78 78 77 77 76 77 77 77 77 
77 77 76 76 76 76 76 76 76 76 76 76 74 73 72 71 
70 67 66 68 124 212 252 248 242 229 166 92 59 59 59 60 

74 76 123 217 252 252 234 168 98 89 91 93 96 97 97 98 
100 99 99 100 100 100 100 101 101 100 100 100 100 100 99 99 
98 98 97 97 97 96 96 95 95 94 94 93 93 93 92 91 
91 91 90 90 90 89 89 89 88 87 85 81 152 187 176 185 
250 104 79 81 83 83 84 84 83 82 82 81 82 81 81 81 
81 80 80 79 79 79 78 78 78 77 77 77 77 77 77 76 
76 77 77 76 77 77 76 77 77 77 76 75 75 74 72 70 
67 68 127 217 251 246 240 218 148 78 60 61 62 62 62 61 

75 76 76 78 140 226 226 193 166 122 88 89 91 93 94 96 
96 97 97 98 98 98 98 99 99 99 99 99 98 99 98 98 
98 96 97 96 94 94 94 93 93 92 92 91 91 90 90 89 
89 89 88 88 88 88 88 87 87 86 84 79 180 194 185 190 
206 81 80 81 83 83 82 81 81 82 81 81 81 81 81 81 
80 79 79 78 78 78 77 77 77 77 76 76 76 76 76 75 
75 76 75 75 75 76 76 77 77 77 76 75 74 72 69 67 
93 205 245 237 233 200 128 69 61 62 62 63 64 63 62 62 

64 66 68 69 71 77 135 176 164 165 161 105 84 86 87 88 
87 88 88 89 90 90 91 92 92 92 92 92 92 92 91 91 
91 90 90 89 88 87 86 86 85 84 84 83 82 82 82 81 
80 77 66 76 78 81 82 82 83 82 80 84 200 197 191 187 
134 76 78 79 79 78 79 78 77 78 77 77 77 76 77 76 
76 75 75 74 74 74 73 73 72 72 72 72 72 72 72 72 
73 72 72 72 73 74 73 74 75 75 74 72 71 69 89 149 
196 210 215 176 107 64 60 61 62 62 62 62 62 60 60 58 

54 56 59 63 66 70 74 86 129 161 178 178 137 88 77 72 
69 65 62 60 58 58 57 57 58 57 57 57 58 58 58 58 
56 57 57 57 57 57 57 57 56 56 57 56 56 56 56 57 
57 62 39 65 63 63 66 71 74 77 77 107 202 197 191 181 
80 72 71 69 68 66 65 64 62 62 62 61 61 61 62 61 
61 61 60 61 61 61 61 61 61 60 60 61 61 61 61 61 
61 62 62 63 64 66 68 71 75 76 77 78 99 152 176 180 
183 145 86 60 58 55 55 54 54 53 51 51 50 49 48 47 

89 91 95 99 103 106 107 111 124 155 177 179 177 166 125 109 
102 97 93 91 88 86 84 83 82 80 79 78 76 76 75 74 
73 72 71 70 69 70 70 69 69 69 68 67 67 66 65 64 
62 54 15 48 62 71 79 88 95 100 107 149 199 195 188 155 
92 86 81 76 72 68 64 61 59 58 57 56 55 54 54 53 
52 52 51 50 48 47 47 47 46 46 46 46 46 47 47 48 
49 50 53 57 62 69 76 83 92 103 128 173 193 186 166 135 
88 70 61 55 52 50 48 46 45 44 42 42 41 41 39 38 

55 57 60 63 69 75 79 89 104 114 125 133 138 138 129 115 
106 101 98 97 96 97 97 96 95 96 96 98 98 97 96 96 
97 96 97 96 96 96 95 96 94 94 94 93 93 93 93 91 
88 88 84 83 88 96 106 117 126 136 159 186 195 192 184 165 
135 121 113 107 102 97 95 93 91 90 90 91 90 89 90 90 
90 88 88 87 86 85 85 84 84 85 85 84 84 84 84 85 
86 87 89 93 100 107 112 116 131 162 193 195 189 178 140 111 
98 88 81 76 72 70 68 66 64 63 61 60 60 59 58 57 

47 48 49 50 54 55 56 57 59 62 74 109 138 152 157 147 
128 107 94 88 88 94 94 82 75 74 77 93 99 81 71 65 
66 70 82 82 77 75 81 85 79 87 87 80 81 91 87 80 
80 83 76 68 71 82 82 73 75 81 95 139 149 147 147 94 
77 82 71 64 63 64 74 74 62 57 57 65 69 58 54 53 
61 69 56 51 48 44 43 43 43 41 41 40 41 41 42 44 
44 45 46 48 51 63 83 113 140 152 157 150 119 75 54 46 
44 42 42 42 41 40 40 39 39 38 38 37 36 35 34 32 

51 52 52 55 59 61 62 64 65 70 82 117 152 171 179 173 
157 132 116 107 105 115 123 99 92 89 92 113 125 99 88 84 
84 89 110 105 96 97 109 112 97 111 116 101 104 125 110 95 
96 112 97 83 86 106 110 89 88 92 111 181 201 197 198 118 
83 98 84 75 75 79 91 91 77 72 73 84 93 73 66 65 
77 90 70 61 56 51 49 47 50 49 47 46 47 48 49 51 
53 54 58 68 91 121 150 169 183 200 207 204 148 78 57 54 
52 51 51 50 49 48 48 48 47 46 45 44 43 43 41 39 

54 55 56 58 61 62 64 65 67 70 77 101 135 159 172 176 
166 145 127 117 112 117 127 107 98 96 96 111 127 101 91 87 
87 92 114 105 96 99 114 111 98 112 116 103 105 125 110 97 
97 110 98 88 90 107 113 93 90 95 119 184 201 196 192 114 
86 97 91 78 76 80 93 96 83 77 74 84 96 76 68 68 
78 91 71 64 59 54 51 50 53 51 49 50 50 52 53 56 
62 72 88 104 132 152 162 173 185 197 196 179 106 68 58 55 
54 54 52 52 50 49 49 49 48 47 47 46 45 44 43 41 

56 56 57 58 60 62 64 65 66 68 73 86 116 146 164 175 
172 152 137 126 120 120 132 115 103 99 99 111 129 104 93 89 
90 96 118 104 95 100 116 111 99 115 117 101 104 126 109 98 
100 114 100 92 94 105 111 96 95 102 126 186 200 195 187 110 
87 95 97 79 75 80 90 98 83 75 73 82 95 78 70 69 
78 87 72 65 61 55 52 50 54 52 51 53 53 57 64 75 
89 104 121 135 151 160 168 177 189 191 183 138 80 61 57 55 
54 53 53 51 51 50 49 49 49 48 48 47 46 46 45 43 

74 75 74 74 75 75 76 77 77 77 79 82 91 105 116 124 
127 120 113 111 110 109 113 108 102 99 99 103 110 100 94 92 
93 95 104 97 92 93 102 103 92 103 103 94 96 107 99 92 
91 100 92 86 86 94 98 88 87 93 110 148 158 154 145 94 
82 86 92 77 73 76 82 89 80 75 74 79 88 78 70 69 
76 81 70 64 61 58 56 54 57 56 55 57 61 66 75 84 
93 103 110 113 120 124 129 134 137 133 121 86 66 62 60 61 
61 61 61 62 62 61 60 60 60 60 60 59 59 58 57 55 

88 89 89 89 89 89 89 89 90 89 89 88 88 88 87 88 
89 89 90 92 93 93 94 94 95 96 96 95 95 95 94 94 
93 91 91 90 89 87 87 86 85 85 84 84 83 83 83 83 
83 83 83 83 82 83 83 82 82 82 80 80 80 79 81 81 
82 83 83 83 84 84 84 84 84 84 83 84 83 83 84 84 
84 84 83 82 82 82 82 82 81 81 81 81 80 80 80 79 
78 78 77 76 74 74 73 72 72 72 73 73 74 75 76 76 
76 76 76 75 76 75 74 74 74 73 73 72 71 70 69 73 

89 89 87 88 89 88 87 87 86 86 85 85 84 83 83 82 
81 81 80 81 80 80 80 80 80 80 79 79 79 79 79 79 
80 79 79 79 79 80 80 79 80 79 80 80 81 81 81 82 
82 82 81 81 80 80 80 80 80 79 79 79 78 78 79 80 
80 80 80 80 81 81 81 81 81 82 82 81 82 81 82 82 
81 81 80 80 80 80 79 80 79 79 79 79 79 79 79 79 
78 77 77 76 75 74 73 73 73 73 73 73 74 74 74 74 
75 74 75 75 75 74 74 74 73 73 72 71 70 75 82 84 

89 89 90 91 90 89 88 88 88 87 86 85 84 83 82 81 
80 80 79 78 78 77 76 76 75 75 75 74 74 74 74 74 
74 75 75 76 76 77 78 79 80 80 81 81 81 82 82 82 
82 82 82 81 81 81 81 81 80 80 80 79 80 80 79 79 
80 79 80 80 80 81 81 81 81 81 82 82 82 82 82 82 
82 81 80 80 80 80 80 80 80 80 80 80 80 79 80 79 
78 78 76 76 75 75 75 74 74 74 74 74 74 74 75 74 
75 75 75 75 76 75 75 74 73 72 73 79 84 86 87 86 

95 90 91 92 91 91 90 89 89 88 88 88 86 86 85 84 
83 83 82 81 80 80 78 79 78 78 77 77 77 76 76 76 
77 77 77 77 77 78 79 80 80 81 82 83 83 83 83 83 
83 82 82 82 82 82 82 82 81 81 81 81 81 80 81 81 
81 81 81 81 82 81 82 82 82 82 83 83 84 83 83 83 
82 82 81 80 81 80 80 81 81 81 81 80 80 80 79 78 
78 77 76 76 76 75 75 74 74 74 74 74 74 74 74 74 
74 74 75 75 76 75 75 73 75 81 88 88 88 89 89 89 

104 102 109 109 108 109 108 107 106 106 105 104 104 103 103 102 
101 101 100 100 100 100 100 100 100 100 99 99 97 97 96 96 
96 95 95 95 94 95 96 97 98 99 100 102 103 104 105 104 
105 104 104 103 103 103 102 102 101 100 100 100 99 98 98 97 
97 97 97 97 98 98 98 98 98 97 97 97 96 96 96 96 
95 95 95 95 96 97 97 98 99 99 99 98 97 95 95 94 
94 93 94 92 92 92 91 90 91 90 90 90 90 91 90 91 
92 92 93 93 94 94 93 93 89 89 89 90 90 90 89 90 

107 105 117 120 119 118 117 116 117 117 118 116 117 116 116 116 
115 115 115 116 115 115 116 116 115 116 115 115 115 115 114 114 
114 113 114 114 115 115 116 117 118 119 120 121 122 123 123 122 
122 122 122 120 120 119 118 118 118 118 117 117 115 114 114 113 
113 112 113 112 112 112 111 111 111 110 110 110 110 110 110 110 
110 109 110 110 112 113 115 116 116 116 116 116 115 114 113 112 
112 111 109 108 107 106 105 104 103 102 101 101 100 100 99 99 
100 99 99 98 98 98 97 96 91 91 92 92 91 92 91 91 

108 107 116 120 118 117 118 118 118 117 117 117 117 117 116 115 
115 115 115 116 115 115 116 116 115 114 114 114 114 114 114 114 
113 114 114 115 115 116 117 118 119 120 121 122 122 123 123 122 
121 121 120 119 119 119 118 117 117 117 117 116 115 114 113 113 
113 112 113 112 112 112 112 111 111 111 111 111 111 111 111 112 
112 112 112 113 115 116 118 118 117 117 117 116 115 114 114 113 
113 111 110 110 108 107 105 105 104 103 101 101 101 101 100 100 
100 99 99 99 99 98 98 96 93 92 92 92 92 93 93 92 

109 108 116 120 118 118 119 119 119 119 118 118 117 116 116 116 
115 116 116 116 116 116 115 115 114 114 114 114 114 114 114 114 
115 115 115 116 117 118 118 119 121 122 122 122 122 122 122 122 
121 121 121 121 120 119 119 118 118 117 117 116 115 115 114 113 
113 113 113 113 112 112 112 112 112 111 112 112 112 113 114 114 
114 115 115 116 117 118 118 118 117 117 116 116 115 115 114 114 
113 112 111 110 109 108 106 106 105 104 102 102 102 101 101 101 
100 99 99 99 99 98 98 97 94 94 93 94 94 94 94 93 

110 108 116 121 119 119 119 119 118 119 119 118 118 117 117 116 
116 116 116 116 115 114 114 113 112 112 111 112 113 113 114 114 
115 116 117 118 119 120 120 122 123 122 122 122 122 122 122 122 
122 121 121 122 121 120 120 120 119 118 117 117 116 115 114 114 
114 114 114 114 114 113 113 113 113 114 113 115 115 116 117 118 
118 118 119 119 119 119 119 118 118 117 117 116 116 115 115 114 
114 113 112 111 110 109 108 106 106 105 103 102 103 102 101 101 
101 101 100 100 100 100 99 97 95 95 95 95 95 95 94 93 

110 109 115 121 120 120 119 119 119 119 119 119 118 118 118 116 
116 115 114 114 112 111 110 109 107 106 106 106 107 109 111 112 
113 114 116 117 119 122 123 123 123 123 123 123 123 123 124 123 
123 123 122 122 122 121 120 120 120 119 118 117 117 116 115 115 
115 115 115 115 114 114 114 114 115 115 116 116 117 118 120 121 
122 123 122 122 121 120 119 119 118 118 117 117 116 116 115 115 
114 113 112 112 110 109 108 106 106 105 104 103 103 103 102 101 
101 101 101 101 100 100 99 97 96 96 95 96 95 95 95 94 

110 109 114 121 120 120 120 119 119 119 118 119 119 118 117 115 
113 112 111 107 115 128 142 176 177 189 192 191 197 175 167 150 
131 112 106 115 118 120 122 122 122 123 123 123 123 123 123 123 
123 123 123 122 122 122 121 120 120 119 118 118 117 117 116 116 
117 116 116 116 116 116 116 116 116 116 117 118 120 121 123 125 
125 126 125 123 122 120 120 119 118 117 117 117 116 116 115 115 
114 113 112 111 110 108 108 107 105 105 104 103 103 103 103 102 
101 101 101 101 101 101 100 97 96 96 96 96 96 96 96 95 

109 108 113 121 120 120 119 119 119 118 119 118 118 117 115 113 
109 116 158 180 208 222 233 241 229 229 230 230 242 231 230 233 
235 227 206 163 137 111 118 121 122 122 123 123 123 123 123 123 
123 123 123 123 123 122 121 121 120 119 118 118 117 116 116 116 
117 117 117 117 117 117 117 117 118 118 119 120 121 123 126 127 
127 126 125 119 117 119 120 119 118 118 118 117 117 116 115 115 
114 113 112 111 110 109 108 107 106 105 104 103 103 103 103 102 
102 101 101 101 100 101 100 98 96 96 96 96 96 96 96 95 

108 108 111 120 121 119 119 119 119 119 119 118 117 115 112 108 
142 202 239 232 229 237 232 238 234 233 234 235 246 237 237 234 
229 232 230 227 237 173 109 114 120 122 122 123 123 124 124 124 
124 125 124 124 124 123 122 121 119 119 118 118 118 118 118 117 
117 118 118 118 118 118 118 118 119 119 120 121 123 125 126 114 
105 102 141 94 97 118 119 119 119 119 117 117 116 116 115 115 
113 112 112 111 110 109 107 106 105 104 102 102 103 103 102 102 
102 101 101 101 101 101 100 97 96 96 96 96 96 96 96 96 

107 107 109 120 120 119 119 118 118 118 118 117 116 112 110 164 
213 227 244 236 230 229 229 239 236 228 229 229 243 231 229 230 
234 229 229 227 242 223 198 104 113 119 122 122 124 123 125 125 
125 125 125 125 125 124 123 122 121 120 120 119 120 119 117 114 
114 114 114 117 119 119 120 120 120 120 121 123 125 126 114 103 
114 130 162 108 106 117 120 119 119 118 117 116 115 115 114 113 
113 112 111 110 109 108 106 104 103 101 100 100 101 101 101 101 
101 100 101 101 101 100 100 97 96 96 97 96 96 96 96 96 

107 107 108 120 119 119 118 118 118 118 118 116 113 109 164 217 
225 231 240 235 231 228 233 233 233 206 193 187 193 188 193 215 
228 227 230 227 241 221 218 175 86 115 121 122 123 125 126 123 
104 99 108 118 92 102 119 122 122 121 119 120 117 95 97 113 
121 170 118 92 88 117 121 121 121 122 123 125 122 116 108 102 
117 134 168 104 109 114 115 103 95 96 95 93 105 113 112 111 
111 111 110 109 107 106 98 83 91 102 108 103 84 88 95 99 
100 100 100 101 101 100 100 96 95 95 96 96 96 96 96 97 

105 105 106 119 119 119 119 118 118 117 117 114 108 154 211 226 
230 227 231 236 230 212 140 88 69 67 73 76 78 78 76 74 
111 206 224 234 238 212 220 212 101 104 119 123 124 125 95 84 
101 120 156 172 112 97 99 90 118 120 119 116 109 89 156 162 
153 194 158 150 104 112 120 121 122 123 124 121 119 115 105 110 
134 154 143 106 109 111 74 46 89 119 119 61 101 111 111 111 
110 109 109 107 100 67 70 150 173 165 154 158 173 158 112 90 
96 99 100 100 101 100 99 96 95 95 95 96 96 96 96 96 

104 104 104 119 119 118 118 118 118 116 115 111 124 198 225 229 
227 228 229 235 171 49 57 74 82 85 89 91 92 91 89 86 
80 108 216 234 226 219 215 216 119 97 112 119 122 86 89 120 
134 133 164 155 123 134 126 78 78 113 115 113 106 94 176 159 
156 202 163 155 130 108 119 122 122 123 122 121 118 113 101 123 
164 130 126 103 109 96 56 57 139 93 154 77 103 108 110 109 
109 109 108 93 45 100 181 137 123 129 138 132 122 131 166 134 
81 98 99 100 100 100 99 95 94 94 95 95 95 96 96 96 

103 104 103 118 118 118 118 118 117 115 113 107 165 217 228 229 
227 223 224 200 40 62 84 93 97 100 103 104 105 104 102 99 
94 85 128 157 139 133 129 122 89 100 112 117 98 77 115 119 
112 133 178 152 128 125 116 113 86 87 110 112 105 91 179 184 
91 70 148 134 117 105 119 122 122 122 122 118 117 101 110 139 
166 121 106 107 103 91 45 79 157 158 153 95 103 106 108 108 
108 107 95 39 97 176 133 163 176 158 131 144 177 170 153 149 
85 96 98 99 99 100 99 94 93 94 94 95 95 95 96 96 

103 103 103 116 119 118 118 117 117 115 111 113 194 224 226 224 
222 225 229 91 44 84 98 103 106 109 110 111 111 111 109 107 
104 98 96 92 84 83 83 85 101 113 115 115 72 91 121 99 
128 112 143 121 102 131 110 112 98 65 104 107 102 87 172 186 
105 37 126 135 120 100 117 120 122 122 110 148 187 144 161 178 
156 114 103 103 98 84 41 113 153 165 151 92 103 105 106 106 
106 105 46 62 183 137 176 138 72 52 48 36 27 94 154 93 
93 95 98 99 99 99 99 93 93 93 94 95 94 95 95 95 

104 103 103 115 118 117 117 116 115 114 110 139 210 222 226 223 
213 218 211 38 66 94 105 109 112 113 113 113 114 113 112 110 
107 105 104 103 100 97 98 106 113 115 115 103 84 120 94 111 
105 84 52 62 68 102 118 88 117 71 86 104 100 80 163 183 
112 46 115 168 137 94 115 119 119 105 116 183 184 171 170 204 
178 127 103 101 97 75 42 149 156 175 122 96 103 105 106 105 
105 76 30 155 146 171 126 66 65 68 68 68 69 68 74 89 
95 97 97 98 99 99 99 93 92 94 94 94 94 94 94 95 

103 103 102 114 118 117 116 116 115 113 109 148 204 216 223 220 
215 215 166 31 84 101 108 112 113 114 113 113 112 111 110 109 
108 108 109 108 108 107 109 115 116 115 112 91 101 127 110 115 
94 62 75 81 75 72 118 91 117 83 71 101 99 76 163 179 
126 55 104 189 151 94 113 116 107 99 135 176 136 89 88 166 
213 152 118 98 95 67 46 161 166 173 102 97 102 104 104 104 
104 43 53 179 143 159 77 69 75 77 79 80 81 83 87 92 
97 97 97 98 98 98 98 91 92 93 93 93 93 94 94 95 

103 103 102 113 117 117 116 115 114 112 107 141 191 184 216 188 
201 214 89 38 90 105 110 112 107 104 106 105 108 108 120 115 
119 123 124 127 137 124 123 111 87 110 102 141 164 123 106 126 
104 65 86 90 85 68 109 99 118 95 67 98 98 73 163 174 
137 61 92 195 157 93 108 107 100 105 148 163 99 70 66 93 
218 163 133 95 93 61 53 161 170 162 100 97 102 103 104 104 
95 27 107 150 171 105 61 70 74 75 76 76 75 79 84 90 
96 96 97 98 98 98 97 92 92 92 93 93 92 93 93 94 

104 103 102 111 117 117 116 115 114 111 103 134 147 165 171 175 
182 186 65 47 94 107 110 110 117 170 194 198 201 202 219 207 
210 211 214 223 233 212 208 153 65 96 94 150 248 159 111 133 
115 74 92 96 87 70 101 107 110 99 60 96 96 72 157 170 
146 64 81 196 164 90 101 104 97 103 165 155 97 75 67 109 
222 163 129 93 92 56 59 162 168 161 97 98 102 103 103 103 
75 26 142 118 160 168 162 161 150 152 156 164 166 166 154 93 
87 96 97 97 97 97 96 91 91 91 93 93 92 92 93 93 

103 103 102 110 117 117 116 115 114 110 102 150 184 190 185 205 
190 212 57 54 97 108 110 103 116 198 211 210 221 222 230 218 
220 221 221 224 226 216 207 153 69 90 89 153 252 195 103 138 
106 74 95 99 92 71 97 113 99 100 59 95 96 73 149 169 
148 66 74 192 170 87 97 101 98 90 156 177 134 101 113 193 
212 149 117 92 91 53 64 164 167 157 93 97 101 102 103 102 
65 26 150 102 118 130 136 136 133 132 134 136 136 137 147 136 
82 93 95 96 96 96 95 90 90 92 92 92 92 92 92 93 

103 103 103 108 117 116 116 115 113 110 101 161 194 204 194 213 
201 216 59 52 99 108 105 99 133 202 206 200 205 205 218 208 
210 213 215 229 217 212 208 135 77 90 86 139 252 199 111 137 
112 77 97 100 93 71 97 116 100 103 58 93 95 77 136 170 
152 66 70 187 173 90 96 101 99 79 136 171 188 197 214 214 
169 137 91 93 90 50 66 162 165 154 92 97 101 102 102 99 
64 25 148 112 161 166 167 165 163 160 160 159 159 158 148 89 
84 92 94 95 95 96 95 89 89 91 91 91 91 92 92 92 

104 104 103 107 117 116 116 115 113 110 103 162 212 219 213 219 
219 224 85 43 97 106 105 96 121 174 171 171 171 165 175 177 
216 218 217 219 220 216 212 110 83 92 88 104 248 193 109 137 
112 81 97 101 94 71 99 116 106 100 62 92 94 80 120 176 
156 67 66 175 173 98 94 101 101 95 82 136 165 201 172 155 
126 95 95 95 90 49 67 163 164 153 92 97 101 102 101 95 
71 23 128 126 164 86 45 50 52 52 54 57 61 67 78 87 
90 93 93 94 94 95 94 89 90 90 90 91 90 91 91 91 

104 104 103 106 117 116 116 115 113 110 104 156 207 219 218 218 
222 223 137 29 85 103 104 101 98 86 75 72 71 68 62 126 
221 221 223 227 220 213 209 77 86 94 90 90 193 149 110 138 
120 80 95 100 94 77 105 110 116 98 65 92 93 83 105 181 
159 66 62 164 169 106 94 102 103 101 83 123 167 163 136 96 
98 99 98 96 91 52 67 163 165 152 95 96 100 102 101 93 
78 30 74 158 134 144 62 60 64 65 66 70 68 71 81 89 
90 92 92 93 94 94 92 88 89 90 90 90 89 90 90 91 

104 104 103 105 117 116 115 115 114 111 104 139 206 219 214 211 
221 224 219 60 46 94 101 102 102 98 89 87 84 78 84 188 
223 223 227 225 220 216 154 75 91 96 93 83 166 137 106 119 
129 86 90 98 93 87 120 99 126 93 69 92 93 85 90 179 
167 66 58 158 165 115 92 102 104 99 92 133 181 137 103 92 
98 102 101 97 90 56 62 156 162 146 94 93 98 100 99 91 
79 51 27 168 120 168 116 66 70 72 72 55 19 26 84 82 
89 91 92 92 92 93 91 87 88 89 89 89 89 89 89 90 

104 104 103 104 116 116 115 115 113 111 105 110 202 218 207 218 
220 224 225 195 66 49 83 98 101 101 95 92 87 88 178 222 
223 227 229 225 218 217 94 86 95 98 96 89 81 112 135 105 
140 119 78 77 84 110 133 94 128 87 75 93 94 87 80 171 
176 70 54 151 162 126 92 102 102 92 104 131 191 166 135 109 
93 94 98 97 89 59 56 160 167 163 91 83 80 75 68 64 
63 63 27 86 160 127 171 126 69 56 38 33 81 170 163 111 
79 89 91 92 92 93 90 86 87 88 88 88 89 88 89 89 

105 104 104 103 116 116 115 114 113 111 107 99 169 215 221 211 
213 224 225 229 225 175 134 122 119 118 118 129 162 212 225 224 
220 231 229 225 220 156 77 91 98 100 98 94 82 94 143 114 
116 141 134 125 136 138 103 122 107 65 84 92 91 85 73 163 
180 82 53 154 156 132 89 99 97 86 122 125 143 155 167 168 
123 100 92 87 82 86 87 159 164 139 168 168 165 160 141 75 
11 15 40 26 132 150 117 142 167 163 165 167 149 116 138 149 
75 88 90 90 91 91 89 86 86 87 87 87 87 88 88 88 

105 104 104 103 116 116 115 114 113 111 108 103 116 201 214 217 
214 217 223 229 227 235 234 230 226 226 225 232 232 226 227 224 
217 222 228 222 195 82 87 95 98 100 99 96 90 79 103 142 
115 109 135 140 120 105 128 119 71 46 77 90 87 83 68 149 
170 150 149 161 153 131 88 94 90 82 89 85 86 86 112 137 
171 111 101 76 98 100 99 116 123 169 171 172 174 173 138 20 
28 13 17 51 35 129 171 124 108 106 110 115 122 163 144 86 
81 87 90 90 90 91 88 85 86 86 87 86 86 87 87 87 

104 104 104 103 115 116 115 114 113 112 110 106 98 140 202 217 
221 215 221 226 228 226 229 234 234 233 229 228 228 231 232 227 
229 226 224 191 86 86 92 95 97 98 99 97 92 86 69 91 
134 138 137 135 132 135 111 65 16 22 25 69 85 80 61 116 
162 157 160 159 146 115 72 90 92 89 82 79 77 73 67 110 
153 128 71 63 71 37 47 60 84 148 147 143 139 134 72 34 
46 29 7 51 57 40 77 146 166 165 166 157 145 89 69 79 
85 88 90 90 90 91 87 85 85 87 86 86 86 86 87 87 

104 105 104 103 114 116 115 114 113 113 111 109 104 81 60 54 
104 220 222 223 228 229 226 225 212 197 222 228 229 231 227 226 
226 216 138 48 59 87 92 93 95 97 97 96 93 89 84 74 
68 86 94 93 88 75 61 29 23 50 43 44 79 78 64 60 
96 114 112 106 82 34 33 59 98 100 91 91 88 83 74 95 
108 30 8 9 39 40 41 43 60 60 48 47 46 47 17 51 
52 46 6 41 62 57 47 42 50 52 57 67 60 61 69 82 
76 48 47 75 91 90 87 86 86 86 86 86 86 85 86 86 

104 105 104 104 113 116 115 114 113 112 111 111 110 26 38 55 
52 153 214 217 228 231 230 181 44 22 92 229 228 224 221 195 
135 69 15 7 6 31 91 94 95 96 98 98 95 92 86 82 
74 64 64 58 48 63 66 38 27 31 38 33 36 65 70 61 
60 58 58 72 53 68 74 63 80 101 100 97 95 86 80 98 
30 19 45 25 11 37 44 38 37 51 49 48 49 50 28 28 
46 32 7 38 66 64 61 56 31 9 8 34 67 70 75 83 
20 5 10 13 75 91 86 85 85 85 86 85 85 85 85 85 

105 106 105 104 112 116 115 114 113 113 112 113 109 31 58 52 
56 70 96 117 128 137 146 61 52 70 41 84 107 87 65 54 
60 51 27 37 41 18 83 95 96 96 98 69 55 57 88 87 
82 77 48 10 9 23 29 11 32 43 40 15 18 48 74 72 
72 74 80 84 45 42 52 42 75 87 88 88 89 87 92 102 
6 32 41 37 11 32 45 19 31 39 52 59 57 37 70 35 
40 38 17 24 47 71 70 59 29 23 27 24 70 75 79 79 
23 34 46 39 39 89 87 85 85 86 86 85 84 84 84 84 

105 106 105 104 111 115 114 114 114 113 114 116 110 63 69 57 
59 77 86 78 72 68 63 14 52 61 57 27 59 62 64 68 
74 68 36 44 36 39 86 97 96 96 56 14 12 9 31 89 
86 87 24 42 66 57 9 5 17 40 32 14 11 24 66 79 
79 84 87 86 64 45 55 46 92 115 107 103 103 109 122 134 
6 25 33 36 10 27 27 27 46 44 29 66 32 6 40 68 
96 84 21 14 13 62 75 52 29 38 37 28 63 77 81 82 
28 25 22 21 39 83 89 87 86 87 86 85 85 84 84 84 

106 106 106 105 109 115 114 114 114 116 117 119 92 47 59 49 
44 72 95 89 85 82 66 14 62 60 56 24 46 77 78 79 
83 88 46 47 49 41 40 97 96 97 20 33 49 28 12 74 
88 91 50 45 47 46 35 11 9 20 20 15 11 17 47 77 
85 88 84 62 33 34 45 30 35 76 120 146 149 147 138 99 
13 6 26 18 6 21 32 18 56 49 13 63 9 5 5 39 
92 67 15 7 5 43 78 47 48 53 55 32 56 79 82 85 
44 31 39 39 32 14 31 45 62 77 87 85 85 84 84 83 

105 106 106 106 109 115 114 115 117 120 122 55 13 32 55 54 
46 16 63 96 94 92 50 17 39 52 49 10 15 62 85 87 
91 34 17 35 42 19 6 86 95 96 28 63 49 47 24 75 
88 89 55 51 50 55 43 19 6 11 8 19 17 14 25 71 
89 76 25 8 7 43 34 33 7 10 42 97 100 99 76 30 
15 5 5 4 16 20 28 23 62 52 22 25 4 4 5 5 
39 62 8 4 4 30 58 31 30 42 39 18 44 81 85 84 
39 27 30 35 30 4 5 6 8 8 58 87 85 85 85 84 

105 106 106 105 109 116 116 118 110 58 31 11 10 15 60 50 
37 11 12 62 100 95 19 7 12 45 30 9 10 17 66 93 
57 6 8 14 21 11 6 17 59 54 29 70 73 67 65 89 
88 81 41 41 51 50 32 36 10 6 7 14 11 16 33 85 
89 18 8 6 6 15 24 9 6 8 10 31 42 42 22 16 
19 10 5 18 27 20 23 21 44 44 9 6 4 4 4 5 
4 4 5 4 4 5 9 28 24 32 23 15 19 22 62 19 
5 6 18 24 21 5 6 7 7 6 16 85 85 85 84 83 

104 106 106 105 109 116 118 122 27 11 11 9 8 19 26 37 
25 10 10 28 106 55 21 14 21 61 39 10 8 16 26 88 
11 6 5 9 8 6 4 7 39 24 18 62 56 48 62 78 
90 49 39 36 42 43 44 30 31 20 6 10 10 13 15 77 
63 8 7 6 5 6 10 6 6 7 9 21 48 45 15 16 
16 18 7 24 20 20 17 22 6 7 5 5 4 3 4 6 
5 5 5 4 5 5 12 19 37 78 22 22 18 9 10 6 
4 5 4 12 9 7 8 7 7 5 7 49 87 86 85 82 

105 106 107 106 109 118 121 100 17 10 8 6 7 9 14 17 
10 9 9 14 87 32 37 29 41 66 49 10 10 34 13 66 
4 5 4 7 7 4 5 54 37 23 15 53 52 19 47 22 
52 38 43 38 33 33 45 36 31 35 8 8 9 11 13 81 
41 8 6 5 6 7 12 6 5 5 8 15 56 48 10 14 
19 18 22 21 29 37 14 20 7 4 8 9 4 4 2 4 
4 3 3 4 4 4 5 9 39 59 10 24 17 7 5 4 
5 5 6 6 7 8 8 8 6 5 8 23 89 85 84 79 

106 107 107 107 110 120 123 33 11 8 6 7 7 12 21 28 
11 8 7 8 39 44 59 60 47 57 53 15 8 38 9 59 
7 6 3 6 8 5 8 61 34 23 13 31 27 10 42 19 
25 25 47 52 25 16 42 31 30 35 12 5 13 14 13 88 
27 7 5 4 6 7 20 6 5 4 10 14 57 44 9 12 
19 18 18 19 101 118 15 17 24 22 12 8 4 5 6 3 
4 5 8 6 5 4 9 10 39 21 17 12 13 6 4 4 
4 5 6 6 13 8 9 6 5 6 9 10 70 87 86 76 

107 108 108 109 111 121 110 10 10 7 6 4 7 24 22 15 
7 8 8 6 18 46 45 34 46 46 53 27 9 30 9 55 
18 6 3 10 12 5 11 70 44 24 13 28 42 12 27 19 
24 20 25 28 34 23 32 28 29 35 19 3 12 14 11 31 
39 18 5 4 5 5 22 5 5 19 61 81 74 36 8 9 
16 15 17 16 49 50 14 15 38 54 8 12 55 4 6 13 
9 7 7 5 4 4 2 9 13 17 23 8 6 7 4 6 
5 4 4 40 51 20 6 5 4 6 8 8 50 90 86 74 

107 108 109 110 114 123 88 12 7 7 5 5 7 9 22 19 
8 8 6 6 39 48 53 52 41 53 29 10 10 30 19 64 
18 4 5 9 9 4 16 29 47 20 8 16 20 15 20 20 
22 23 22 25 21 22 27 33 30 33 24 6 9 12 11 23 
77 74 6 3 4 4 6 4 4 16 73 74 72 39 16 11 
14 16 15 14 13 11 6 15 22 26 9 16 14 4 19 74 
29 8 6 4 3 3 2 3 7 85 108 29 4 7 10 6 
6 3 3 24 60 36 4 4 4 9 10 9 34 92 88 73 

107 109 110 115 119 121 70 12 9 8 5 8 6 41 104 39 
9 6 6 6 65 48 49 65 37 47 20 5 21 32 31 49 
7 2 4 13 11 4 31 22 32 17 7 6 6 31 35 27 
21 26 21 26 21 24 29 31 28 38 26 6 10 10 8 28 
75 52 27 6 4 5 4 5 21 45 62 70 65 62 19 18 
13 15 14 18 16 11 17 23 12 5 18 38 32 4 20 57 
45 49 10 5 5 4 4 3 8 50 35 8 4 7 10 6 
5 4 3 3 4 4 3 3 9 11 11 10 49 99 93 72 

107 111 116 116 117 121 60 10 8 7 6 6 7 18 60 29 
6 9 13 8 100 52 48 31 45 44 22 5 28 38 39 15 
4 1 4 8 9 6 27 20 18 13 7 5 3 13 21 29 
22 34 20 18 21 28 27 26 31 36 28 5 6 7 12 27 
72 53 46 44 37 31 29 34 43 50 70 65 49 56 27 21 
18 20 24 24 16 25 23 20 16 7 13 29 25 10 7 9 
17 41 15 5 11 5 4 7 45 69 34 7 9 3 3 7 
7 5 4 5 4 3 3 9 10 10 9 13 69 74 69 56 

113 115 115 115 116 120 47 12 10 8 5 5 6 10 6 18 
11 11 10 31 67 32 40 47 42 39 29 19 32 52 42 7 
6 6 4 7 13 9 28 21 17 12 6 5 12 23 30 30 
21 30 23 13 21 26 26 25 35 40 27 11 11 10 9 29 
71 58 52 49 48 45 40 38 41 54 70 51 53 4 22 18 
38 23 21 20 25 24 22 15 9 5 8 17 14 9 2 2 
2 4 3 4 8 4 4 6 57 76 23 5 3 1 2 6 
9 7 4 4 4 5 31 45 12 7 8 7 31 42 41 40 

115 115 116 117 118 122 32 10 9 8 4 6 6 9 45 77 
28 8 12 23 31 30 26 59 66 62 39 29 35 64 49 7 
10 7 4 2 12 12 23 21 19 10 16 43 33 28 26 20 
14 29 35 15 10 13 15 29 40 31 16 8 10 8 12 47 
68 61 59 49 40 32 30 32 32 40 51 38 34 2 10 13 
17 19 18 21 30 29 15 7 5 2 5 8 7 3 2 2 
1 2 1 3 4 1 7 43 68 67 15 4 4 3 3 6 
9 8 5 4 5 27 67 63 18 5 7 8 26 40 37 36 

119 120 119 120 122 113 14 10 9 9 6 6 7 46 75 71 
8 7 10 17 17 20 16 39 59 72 61 61 34 50 40 7 
6 5 3 2 8 13 26 19 21 47 92 62 31 47 82 42 
7 21 31 39 37 19 32 39 29 12 12 12 7 5 24 47 
64 57 56 36 22 10 11 18 52 61 30 42 23 4 12 21 
20 25 24 24 25 28 24 7 3 2 3 5 6 6 2 4 
12 8 2 4 5 2 5 20 23 13 4 8 6 4 3 6 
7 9 6 5 15 56 62 56 9 6 7 7 26 35 34 31 

73 71 70 71 72 49 11 9 8 10 11 6 6 53 65 33 
6 7 8 10 10 11 20 39 44 52 30 53 75 61 24 15 
5 3 2 1 3 11 25 17 25 88 63 4 19 63 77 64 
6 9 20 35 37 44 38 32 13 10 14 17 11 6 26 40 
57 50 40 19 14 3 4 17 74 60 36 46 8 7 19 17 
20 22 22 22 26 25 27 13 5 5 5 9 8 8 3 6 
13 10 3 7 13 13 13 8 3 8 10 4 4 14 20 7 
7 51 58 11 11 44 45 35 4 5 7 7 29 34 33 31 

62 63 63 64 65 35 11 8 9 10 12 13 9 6 8 5 
6 11 5 7 7 14 43 60 66 50 86 97 76 60 58 44 
7 3 2 1 3 7 24 18 52 88 40 4 28 56 64 57 
9 11 6 12 30 48 70 69 42 14 9 13 14 18 42 41 
55 59 27 33 36 10 22 42 67 57 41 33 4 3 9 17 
18 18 16 13 9 9 13 32 21 5 7 32 31 25 4 12 
23 23 4 15 29 26 22 14 5 17 18 5 6 15 14 7 
8 38 71 46 19 37 30 25 4 5 6 8 27 28 27 26 

63 64 64 65 66 43 12 7 8 9 9 11 12 9 4 6 
39 30 5 5 7 28 51 66 47 61 90 102 110 92 77 96 
46 3 2 6 6 8 24 23 54 75 32 17 32 46 60 51 
9 10 10 39 34 30 62 72 57 14 6 7 35 52 34 45 
57 75 36 39 27 28 21 41 54 49 47 16 5 3 7 9 
7 4 3 7 9 8 8 10 9 5 5 11 13 12 5 7 
13 10 9 9 15 17 16 12 9 18 22 7 9 17 17 10 
7 14 51 48 22 32 31 31 5 4 5 16 30 29 28 28 

63 64 64 65 65 25 11 8 6 8 10 11 13 19 44 69 
60 6 4 6 22 37 49 53 51 38 78 88 102 85 67 100 
73 4 4 11 11 7 27 25 32 26 38 30 27 45 61 43 
7 6 15 59 58 42 44 55 44 29 5 9 47 57 14 12 
44 68 48 59 13 8 14 32 44 47 48 14 7 3 6 6 
6 6 4 8 5 7 10 13 12 9 10 11 12 11 5 7 
11 7 7 9 12 12 13 13 10 16 18 9 8 19 18 19 
16 16 23 37 32 32 33 32 6 5 6 24 33 33 31 30 

80 81 81 81 77 12 10 9 6 10 11 8 29 83 83 45 
11 4 6 8 26 25 44 44 51 34 66 69 72 38 47 66 
41 10 4 5 6 6 27 27 20 45 39 15 18 43 61 42 
15 12 42 44 37 27 13 15 29 38 17 10 45 42 10 11 
17 42 47 56 12 11 15 12 48 55 25 23 22 3 5 6 
6 7 5 7 7 9 18 19 19 20 20 17 16 17 15 15 
16 13 12 16 15 14 14 14 12 14 13 9 10 19 26 22 
22 30 27 29 30 31 33 27 9 5 12 33 34 35 33 33 

44 42 42 42 35 11 10 9 5 11 14 19 33 76 72 37 
7 6 7 18 30 29 37 49 41 21 30 26 9 20 21 21 
13 9 5 2 3 7 19 24 22 48 29 19 17 49 55 47 
22 23 43 12 15 14 11 10 19 43 12 11 14 16 9 9 
8 9 15 16 15 15 14 12 23 56 87 54 8 7 6 4 
5 6 5 8 13 16 23 22 21 21 23 26 24 23 21 21 
21 21 20 21 20 18 18 17 16 19 18 14 15 20 25 28 
26 23 26 20 26 27 29 29 29 28 27 35 36 37 35 34 

42 43 45 47 48 29 12 13 8 11 13 18 26 58 64 32 
7 8 8 28 34 32 26 33 25 16 23 16 8 7 12 13 
9 5 4 2 4 8 35 24 34 50 28 18 17 60 72 35 
20 9 6 11 10 10 9 8 16 10 20 11 15 13 8 9 
8 7 18 21 20 19 20 19 20 28 74 31 19 16 15 14 
7 5 7 12 16 17 18 25 25 27 29 31 34 29 26 26 
28 27 25 29 26 24 22 21 20 19 20 19 21 26 26 28 
27 25 14 8 19 30 30 30 38 45 41 36 35 37 36 34 

44 44 45 46 47 43 19 19 11 12 12 13 22 34 45 31 
14 21 10 11 28 29 20 16 14 8 9 9 10 6 8 14 
11 6 8 6 9 9 60 82 83 52 29 17 25 64 63 36 
20 20 40 24 11 10 10 12 19 48 32 16 18 19 7 10 
11 7 17 23 21 23 25 25 26 28 29 25 25 26 26 26 
24 21 21 20 21 21 20 24 29 29 29 33 33 38 28 26 
25 25 25 28 27 25 24 22 23 21 21 22 24 28 31 28 
28 26 19 16 12 26 30 26 42 49 52 34 35 36 35 33 

45 46 46 48 47 49 43 30 8 12 17 14 16 25 37 30 
20 14 11 12 22 30 24 20 10 9 13 8 6 4 14 19 
18 18 18 17 15 12 70 83 61 55 16 11 17 57 61 18 
21 15 15 15 16 15 16 18 18 21 20 21 24 25 7 9 
11 7 13 27 25 26 27 27 27 28 28 27 27 28 31 30 
28 29 30 30 30 28 27 26 30 35 32 32 35 36 40 30 
28 27 27 28 28 27 26 26 25 26 25 24 24 27 31 32 
30 25 20 21 23 27 28 22 46 65 60 36 36 35 34 34 

46 48 47 48 46 46 40 14 7 13 35 39 43 40 35 23 
18 16 17 24 34 36 31 23 17 11 9 6 10 18 24 25 
24 24 22 20 18 15 65 73 69 41 10 12 16 26 17 20 
23 20 22 21 22 23 24 24 25 26 27 27 29 33 8 8 
10 8 8 31 28 27 28 28 28 31 30 29 31 32 36 33 
31 30 31 31 30 31 31 31 30 35 38 37 38 34 35 42 
32 31 30 30 31 30 28 27 27 26 28 27 25 27 30 32 
31 27 23 22 24 27 28 17 10 18 19 30 36 37 35 34 

46 48 48 45 44 43 33 18 10 11 40 42 37 36 34 26 
19 19 22 30 38 39 34 28 27 27 23 22 26 30 31 30 
29 29 23 23 23 21 42 56 42 18 17 20 22 28 29 34 
42 27 29 26 27 28 27 27 29 29 29 30 31 35 13 8 
8 7 8 28 32 29 30 30 30 33 33 31 32 34 34 32 
32 31 30 30 32 32 31 33 34 33 42 39 39 39 37 38 
43 35 33 34 33 32 30 29 27 28 27 29 30 27 30 30 
29 27 25 24 24 25 27 26 19 13 19 28 29 33 37 33 

48 47 46 44 41 38 33 12 7 15 35 35 34 35 35 31 
26 26 27 30 37 39 33 31 31 31 33 32 32 33 35 32 
34 30 27 28 28 27 29 23 24 27 28 29 30 31 39 27 
29 31 32 28 29 30 32 31 31 30 33 33 33 35 22 9 
9 9 10 22 36 31 31 30 31 32 32 32 33 35 35 36 
32 31 31 31 31 32 32 35 36 37 38 45 41 41 41 40 
42 48 36 32 33 31 30 30 29 28 29 29 28 32 29 30 
29 28 28 27 28 28 29 28 28 27 24 28 28 28 27 31 

49 49 48 40 36 36 35 21 16 24 28 34 35 35 36 36 
35 31 31 33 38 38 35 36 36 35 36 37 35 37 37 34 
43 34 32 33 32 34 41 36 37 36 34 34 35 35 36 35 
34 33 35 32 33 33 33 32 34 34 35 35 35 36 33 11 
12 13 13 15 42 31 30 30 31 31 33 34 35 36 35 34 
37 34 34 34 34 36 38 37 37 39 39 41 47 38 36 35 
35 37 48 37 36 35 34 34 33 33 33 33 31 29 33 33 
31 30 30 27 28 28 29 28 26 25 30 33 28 28 26 22 

48 49 39 34 35 34 31 32 30 30 30 34 35 37 38 38 
38 36 36 36 38 38 39 39 39 37 37 37 38 38 37 43 
41 36 35 36 35 41 38 41 40 38 38 39 38 38 37 36 
36 36 36 34 35 36 35 35 35 36 37 37 37 37 42 16 
16 17 15 13 43 35 34 36 37 43 38 38 40 39 41 41 
45 40 44 42 41 39 38 38 40 40 42 42 43 44 34 31 
31 33 36 50 41 37 38 36 36 33 32 34 31 35 33 31 
34 31 29 29 29 30 31 30 29 28 28 33 38 33 25 23 

49 37 36 36 35 31 38 37 32 31 32 34 35 36 37 37 
37 37 38 37 38 40 41 41 42 40 42 42 40 41 40 51 
41 40 38 39 40 50 40 41 41 41 40 40 40 39 38 39 
38 42 43 45 39 36 35 39 38 38 42 44 40 41 48 17 
17 18 15 13 34 40 37 37 38 37 40 40 43 40 40 38 
38 43 40 37 39 39 40 42 42 43 44 44 41 47 48 39 
36 36 36 39 52 40 37 38 38 34 31 32 33 34 34 32 
34 35 31 29 28 29 29 31 28 30 31 36 37 39 40 24 

35 34 35 35 34 42 39 36 34 33 35 37 38 39 39 40 
41 41 40 38 41 40 40 43 44 47 51 43 43 43 50 45 
44 43 42 41 45 47 41 45 43 42 42 42 42 40 40 39 
40 42 45 37 36 35 36 41 45 46 39 36 38 41 52 21 
20 20 17 13 21 46 40 39 39 39 39 38 41 42 41 39 
37 39 40 40 40 40 40 42 44 46 47 46 43 42 50 47 
40 40 40 40 41 54 44 36 37 35 34 34 33 33 32 31 
31 31 34 32 29 29 29 29 31 31 33 36 36 38 38 40 

34 35 34 34 46 48 45 45 45 45 44 44 46 49 48 50 
43 43 40 41 44 45 45 46 46 46 52 46 48 48 58 44 
47 45 44 44 53 45 42 42 42 41 40 40 40 41 41 40 
39 42 36 37 38 40 44 44 39 39 41 38 38 41 49 32 
24 22 19 17 14 49 41 41 40 39 39 39 42 43 42 40 
40 40 43 40 39 40 41 43 46 49 49 48 45 42 43 53 
45 40 41 42 41 43 56 42 38 39 37 36 36 34 34 31 
29 29 30 34 34 30 29 31 30 32 33 34 36 37 36 36 

33 34 35 50 55 54 52 49 47 46 47 48 49 51 50 47 
47 50 51 48 44 45 45 49 51 49 52 54 52 64 50 48 
47 48 45 44 58 47 44 44 44 43 44 41 41 40 42 41 
40 45 44 46 44 43 39 38 38 39 39 42 43 43 47 45 
31 26 21 19 17 41 44 46 44 42 41 41 42 44 43 42 
40 40 42 44 42 40 42 45 47 52 53 52 48 42 40 44 
55 45 41 45 43 42 44 58 45 41 40 40 38 38 37 35 
34 32 32 31 34 35 32 32 30 31 33 34 37 37 36 35 

32 34 52 56 54 51 48 47 46 48 48 49 47 46 50 48 
45 42 46 47 44 47 46 47 47 48 54 51 52 64 46 47 
48 49 48 54 54 51 51 49 48 47 46 43 44 42 43 43 
42 47 38 37 38 40 40 39 39 40 39 40 44 48 46 52 
37 30 24 22 19 29 51 46 44 43 44 45 45 44 43 42 
41 39 38 43 40 42 43 45 48 49 53 52 47 44 42 43 
47 57 45 43 44 44 43 42 57 47 42 41 40 40 39 37 
36 35 35 34 33 33 36 32 32 30 33 34 36 37 37 36 

33 54 56 57 56 54 48 49 49 47 46 46 47 48 49 46 
43 45 44 43 46 48 49 49 48 50 53 50 65 51 48 50 
52 52 50 63 49 48 49 51 49 47 45 44 44 45 43 41 
41 46 37 38 40 41 39 39 43 42 42 42 43 47 48 56 
43 35 30 25 23 21 52 44 43 44 44 45 46 47 50 46 
45 42 41 40 43 41 43 45 48 50 51 49 49 47 44 42 
44 49 58 44 44 46 45 43 43 59 49 43 41 42 42 39 
38 37 38 37 36 36 34 37 36 35 36 37 38 39 38 38 

53 56 56 57 57 56 52 49 46 43 46 49 49 49 47 49 
48 50 46 46 47 50 48 49 52 53 50 53 66 47 48 51 
53 54 54 69 49 48 46 48 49 47 47 47 45 45 45 41 
40 44 39 40 43 43 46 43 43 44 43 42 44 46 50 58 
47 39 33 30 26 21 47 44 44 44 45 46 48 48 46 44 
43 44 43 44 44 43 42 45 48 51 52 49 46 44 44 45 
45 49 51 58 47 48 46 45 44 44 59 49 46 45 44 42 
43 41 40 38 37 37 37 36 37 43 40 41 41 41 40 41 

53 53 55 56 56 57 55 50 48 49 51 51 53 47 49 49 
49 50 49 50 50 48 50 55 56 53 51 68 49 49 51 53 
58 59 70 59 54 51 47 48 49 46 45 45 48 46 44 44 
44 45 38 41 42 40 41 46 44 43 43 44 44 47 49 59 
48 42 37 35 31 26 38 52 44 44 46 47 48 48 47 45 
45 45 44 44 45 47 44 46 49 50 48 47 46 44 43 44 
46 50 53 55 60 52 50 49 48 45 46 59 53 53 50 46 
42 40 41 39 37 36 35 35 35 37 41 42 42 43 43 41 

55 54 56 53 56 55 52 51 48 49 51 50 49 48 48 49 
49 49 47 48 49 51 55 56 54 54 55 63 47 47 48 53 
57 53 70 55 54 52 51 50 46 47 43 45 45 44 45 46 
46 48 44 45 45 42 41 43 45 44 44 49 48 51 49 58 
51 44 40 39 35 29 27 64 48 49 48 49 49 49 49 48 
46 46 48 47 46 47 50 49 50 50 50 48 47 45 44 45 
44 45 50 55 60 60 49 48 48 46 45 45 59 52 51 50 
47 42 43 43 42 38 37 37 36 35 37 40 43 41 41 40 

54 55 55 55 54 51 51 53 51 51 52 50 48 48 48 47 
47 46 50 48 48 53 58 57 57 55 68 47 46 50 53 54 
56 64 63 55 54 53 55 54 53 49 50 47 44 45 43 43 
48 46 43 44 48 48 47 46 45 44 44 46 51 49 48 57 
55 46 41 42 40 31 26 53 46 48 50 50 50 50 50 51 
47 46 45 47 47 46 49 49 51 50 48 48 46 46 45 44 
46 45 49 55 62 63 57 50 47 47 46 47 44 58 51 50 
50 45 43 40 39 39 39 38 38 39 39 40 40 43 43 42 

54 55 54 51 49 53 55 55 54 52 52 49 47 47 47 47 
47 49 49 49 51 53 55 58 57 59 69 51 52 54 56 60 
60 80 56 57 55 53 51 52 50 51 50 46 45 43 45 44 
49 45 51 48 49 45 50 47 48 47 44 45 46 49 52 56 
57 44 40 41 41 32 27 43 54 48 48 49 50 51 49 49 
47 46 46 46 45 45 47 51 50 49 48 49 46 45 46 46 
45 49 47 51 56 60 61 55 47 46 44 45 46 43 56 51 
49 49 46 43 40 38 38 38 38 36 36 38 40 41 42 41 

56 54 53 53 52 54 54 49 51 49 48 47 45 43 41 42 
45 45 45 46 46 47 51 57 54 77 53 51 52 54 57 57 
60 80 63 58 54 54 51 50 53 54 52 52 47 44 45 46 
53 46 44 47 48 49 44 45 48 47 44 45 49 49 52 51 
57 45 42 41 40 32 28 31 57 48 49 52 49 50 51 49 
47 50 55 51 52 53 54 61 52 48 46 46 46 44 44 46 
47 47 47 49 51 55 55 59 50 45 44 45 44 44 43 60 
49 47 47 44 42 40 41 39 39 37 39 40 41 41 40 42 

52 54 56 57 56 54 53 51 51 49 49 48 43 43 48 47 
48 57 53 51 48 52 62 49 63 71 50 51 52 56 57 59 
78 66 63 60 57 53 55 49 57 59 58 55 51 51 49 45 
49 43 43 43 47 43 43 44 46 45 43 45 47 50 49 50 
58 44 41 43 41 32 28 27 55 43 47 49 53 49 48 52 
47 59 44 44 45 45 46 47 53 50 48 48 46 45 43 45 
46 47 47 46 48 51 54 53 60 48 44 45 45 45 42 48 
55 47 45 47 47 44 42 43 42 43 42 43 43 42 41 41 

56 55 57 56 56 54 51 46 50 53 51 52 49 50 57 55 
57 55 57 60 56 61 60 54 82 53 50 52 54 57 57 58 
87 56 55 54 54 49 50 60 58 57 52 50 48 51 48 48 
52 44 43 46 43 42 44 43 43 44 43 44 43 44 48 50 
57 43 42 43 39 33 28 27 48 46 44 46 48 50 48 47 
54 53 43 43 44 45 44 44 48 51 47 45 44 43 43 42 
43 47 46 46 46 47 48 51 50 58 46 47 49 44 40 43 
38 51 47 44 45 45 43 41 42 43 44 45 44 44 43 43 

